<svg width="64" height="64" viewBox="0 0 64 64" fill="none" xmlns="http://www.w3.org/2000/svg">
<path d="M6.52941 43.4706H4.64706V45.3529H6.52941V43.4706ZM8.41177 43.4706H6.52941V45.3529H8.41177V43.4706ZM10.2941 43.4706H8.41177V45.3529H10.2941V43.4706ZM10.2941 45.3529H8.41177V47.2353H10.2941V45.3529ZM8.41177 45.3529H6.52941V47.2353H8.41177V45.3529ZM10.2941 47.2353H8.41177V49.1176H10.2941V47.2353ZM12.1765 47.2353H10.2941V49.1176H12.1765V47.2353ZM8.41177 47.2353H6.52941V49.1176H8.41177V47.2353ZM12.1765 49.1176H10.2941V51H12.1765V49.1176ZM14.0588 49.1176H12.1765V51H14.0588V49.1176ZM15.9412 49.1176H14.0588V51H15.9412V49.1176ZM17.8235 49.1176H15.9412V51H17.8235V49.1176ZM19.7059 49.1176H17.8235V51H19.7059V49.1176ZM21.5882 49.1176H19.7059V51H21.5882V49.1176ZM23.4706 49.1176H21.5882V51H23.4706V49.1176ZM23.4706 47.2353H21.5882V49.1176H23.4706V47.2353ZM25.3529 47.2353H23.4706V49.1176H25.3529V47.2353ZM27.2353 47.2353H25.3529V49.1176H27.2353V47.2353ZM27.2353 45.3529H25.3529V47.2353H27.2353V45.3529ZM25.3529 45.3529H23.4706V47.2353H25.3529V45.3529ZM23.4706 45.3529H21.5882V47.2353H23.4706V45.3529ZM21.5882 45.3529H19.7059V47.2353H21.5882V45.3529ZM19.7059 45.3529H17.8235V47.2353H19.7059V45.3529ZM17.8235 45.3529H15.9412V47.2353H17.8235V45.3529ZM15.9412 45.3529H14.0588V47.2353H15.9412V45.3529ZM14.0588 45.3529H12.1765V47.2353H14.0588V45.3529ZM12.1765 45.3529H10.2941V47.2353H12.1765V45.3529ZM14.0588 47.2353H12.1765V49.1176H14.0588V47.2353ZM15.9412 47.2353H14.0588V49.1176H15.9412V47.2353ZM17.8235 47.2353H15.9412V49.1176H17.8235V47.2353ZM19.7059 47.2353H17.8235V49.1176H19.7059V47.2353ZM21.5882 47.2353H19.7059V49.1176H21.5882V47.2353ZM25.3529 43.4706H23.4706V45.3529H25.3529V43.4706ZM27.2353 43.4706H25.3529V45.3529H27.2353V43.4706ZM29.1176 43.4706H27.2353V45.3529H29.1176V43.4706ZM25.3529 41.5882H23.4706V43.4706H25.3529V41.5882ZM23.4706 41.5882H21.5882V43.4706H23.4706V41.5882ZM21.5882 43.4706H19.7059V45.3529H21.5882V43.4706ZM23.4706 43.4706H21.5882V45.3529H23.4706V43.4706ZM27.2353 41.5882H25.3529V43.4706H27.2353V41.5882ZM27.2353 39.7059H25.3529V41.5882H27.2353V39.7059ZM29.1176 39.7059H27.2353V41.5882H29.1176V39.7059ZM29.1176 37.8235H27.2353V39.7059H29.1176V37.8235ZM29.1176 41.5882H27.2353V43.4706H29.1176V41.5882ZM29.1176 35.9412H27.2353V37.8235H29.1176V35.9412ZM27.2353 35.9412H25.3529V37.8235H27.2353V35.9412ZM25.3529 35.9412H23.4706V37.8235H25.3529V35.9412ZM23.4706 35.9412H21.5882V37.8235H23.4706V35.9412ZM23.4706 37.8235H21.5882V39.7059H23.4706V37.8235ZM23.4706 39.7059H21.5882V41.5882H23.4706V39.7059ZM25.3529 37.8235H23.4706V39.7059H25.3529V37.8235ZM27.2353 37.8235H25.3529V39.7059H27.2353V37.8235ZM25.3529 39.7059H23.4706V41.5882H25.3529V39.7059ZM19.7059 43.4706H17.8235V45.3529H19.7059V43.4706ZM17.8235 43.4706H15.9412V45.3529H17.8235V43.4706ZM15.9412 43.4706H14.0588V45.3529H15.9412V43.4706ZM14.0588 43.4706H12.1765V45.3529H14.0588V43.4706ZM12.1765 43.4706H10.2941V45.3529H12.1765V43.4706ZM12.1765 41.5882H10.2941V43.4706H12.1765V41.5882ZM14.0588 41.5882H12.1765V43.4706H14.0588V41.5882ZM10.2941 41.5882H8.41177V43.4706H10.2941V41.5882ZM8.41177 41.5882H6.52941V43.4706H8.41177V41.5882ZM8.41177 39.7059H6.52941V41.5882H8.41177V39.7059ZM6.52941 39.7059H4.64706V41.5882H6.52941V39.7059ZM6.52941 37.8235H4.64706V39.7059H6.52941V37.8235ZM6.52941 41.5882H4.64706V43.4706H6.52941V41.5882ZM6.52941 35.9412H4.64706V37.8235H6.52941V35.9412ZM6.52941 34.0588H4.64706V35.9412H6.52941V34.0588ZM8.41177 28.4118H6.52941V30.2941H8.41177V28.4118ZM8.41177 26.5294H6.52941V28.4118H8.41177V26.5294ZM10.2941 28.4118H8.41177V30.2941H10.2941V28.4118ZM12.1765 28.4118H10.2941V30.2941H12.1765V28.4118ZM12.1765 30.2941H10.2941V32.1765H12.1765V30.2941ZM12.1765 32.1765H10.2941V34.0588H12.1765V32.1765ZM12.1765 34.0588H10.2941V35.9412H12.1765V34.0588ZM12.1765 35.9412H10.2941V37.8235H12.1765V35.9412ZM12.1765 37.8235H10.2941V39.7059H12.1765V37.8235ZM12.1765 39.7059H10.2941V41.5882H12.1765V39.7059ZM10.2941 39.7059H8.41177V41.5882H10.2941V39.7059ZM10.2941 37.8235H8.41177V39.7059H10.2941V37.8235ZM8.41177 37.8235H6.52941V39.7059H8.41177V37.8235ZM8.41177 35.9412H6.52941V37.8235H8.41177V35.9412ZM8.41177 34.0588H6.52941V35.9412H8.41177V34.0588ZM8.41177 32.1765H6.52941V34.0588H8.41177V32.1765ZM10.2941 30.2941H8.41177V32.1765H10.2941V30.2941ZM10.2941 32.1765H8.41177V34.0588H10.2941V32.1765ZM10.2941 34.0588H8.41177V35.9412H10.2941V34.0588ZM10.2941 35.9412H8.41177V37.8235H10.2941V35.9412ZM6.52941 26.5294H4.64706V28.4118H6.52941V26.5294ZM6.52941 24.6471H4.64706V26.5294H6.52941V24.6471ZM6.52941 22.7647H4.64706V24.6471H6.52941V22.7647ZM6.52941 20.8824H4.64706V22.7647H6.52941V20.8824ZM6.52941 19H4.64706V20.8824H6.52941V19ZM8.41177 19H6.52941V20.8824H8.41177V19ZM8.41177 17.1176H6.52941V19H8.41177V17.1176ZM8.41177 15.2353H6.52941V17.1176H8.41177V15.2353ZM10.2941 15.2353H8.41177V17.1176H10.2941V15.2353ZM12.1765 15.2353H10.2941V17.1176H12.1765V15.2353ZM10.2941 26.5294H8.41177V28.4118H10.2941V26.5294ZM10.2941 24.6471H8.41177V26.5294H10.2941V24.6471ZM10.2941 22.7647H8.41177V24.6471H10.2941V22.7647ZM8.41177 22.7647H6.52941V24.6471H8.41177V22.7647ZM8.41177 20.8824H6.52941V22.7647H8.41177V20.8824ZM8.41177 24.6471H6.52941V26.5294H8.41177V24.6471ZM12.1765 26.5294H10.2941V28.4118H12.1765V26.5294ZM12.1765 24.6471H10.2941V26.5294H12.1765V24.6471ZM10.2941 20.8824H8.41177V22.7647H10.2941V20.8824ZM12.1765 20.8824H10.2941V22.7647H12.1765V20.8824ZM12.1765 22.7647H10.2941V24.6471H12.1765V22.7647ZM14.0588 20.8824H12.1765V22.7647H14.0588V20.8824ZM14.0588 19H12.1765V20.8824H14.0588V19ZM12.1765 17.1176H10.2941V19H12.1765V17.1176ZM10.2941 17.1176H8.41177V19H10.2941V17.1176ZM10.2941 19H8.41177V20.8824H10.2941V19ZM12.1765 19H10.2941V20.8824H12.1765V19ZM14.0588 17.1176H12.1765V19H14.0588V17.1176ZM14.0588 15.2353H12.1765V17.1176H14.0588V15.2353ZM14.0588 13.3529H12.1765V15.2353H14.0588V13.3529ZM12.1765 13.3529H10.2941V15.2353H12.1765V13.3529ZM15.9412 13.3529H14.0588V15.2353H15.9412V13.3529ZM17.8235 13.3529H15.9412V15.2353H17.8235V13.3529ZM19.7059 13.3529H17.8235V15.2353H19.7059V13.3529ZM21.5882 13.3529H19.7059V15.2353H21.5882V13.3529ZM21.5882 15.2353H19.7059V17.1176H21.5882V15.2353ZM23.4706 15.2353H21.5882V17.1176H23.4706V15.2353ZM23.4706 13.3529H21.5882V15.2353H23.4706V13.3529ZM25.3529 15.2353H23.4706V17.1176H25.3529V15.2353ZM27.2353 15.2353H25.3529V17.1176H27.2353V15.2353ZM27.2353 17.1176H25.3529V19H27.2353V17.1176ZM27.2353 19H25.3529V20.8824H27.2353V19ZM29.1176 19H27.2353V20.8824H29.1176V19ZM29.1176 20.8824H27.2353V22.7647H29.1176V20.8824ZM27.2353 20.8824H25.3529V22.7647H27.2353V20.8824ZM25.3529 20.8824H23.4706V22.7647H25.3529V20.8824ZM23.4706 20.8824H21.5882V22.7647H23.4706V20.8824ZM21.5882 19H19.7059V20.8824H21.5882V19ZM19.7059 19H17.8235V20.8824H19.7059V19ZM17.8235 19H15.9412V20.8824H17.8235V19ZM15.9412 19H14.0588V20.8824H15.9412V19ZM15.9412 15.2353H14.0588V17.1176H15.9412V15.2353ZM15.9412 17.1176H14.0588V19H15.9412V17.1176ZM17.8235 17.1176H15.9412V19H17.8235V17.1176ZM19.7059 17.1176H17.8235V19H19.7059V17.1176ZM17.8235 15.2353H15.9412V17.1176H17.8235V15.2353ZM19.7059 15.2353H17.8235V17.1176H19.7059V15.2353ZM21.5882 17.1176H19.7059V19H21.5882V17.1176ZM23.4706 17.1176H21.5882V19H23.4706V17.1176ZM23.4706 19H21.5882V20.8824H23.4706V19ZM25.3529 19H23.4706V20.8824H25.3529V19ZM25.3529 17.1176H23.4706V19H25.3529V17.1176ZM25.3529 22.7647H23.4706V24.6471H25.3529V22.7647ZM25.3529 24.6471H23.4706V26.5294H25.3529V24.6471ZM25.3529 26.5294H23.4706V28.4118H25.3529V26.5294ZM25.3529 28.4118H23.4706V30.2941H25.3529V28.4118ZM23.4706 28.4118H21.5882V30.2941H23.4706V28.4118ZM23.4706 30.2941H21.5882V32.1765H23.4706V30.2941ZM23.4706 26.5294H21.5882V28.4118H23.4706V26.5294ZM23.4706 24.6471H21.5882V26.5294H23.4706V24.6471ZM23.4706 22.7647H21.5882V24.6471H23.4706V22.7647ZM23.4706 32.1765H21.5882V34.0588H23.4706V32.1765ZM23.4706 34.0588H21.5882V35.9412H23.4706V34.0588ZM25.3529 34.0588H23.4706V35.9412H25.3529V34.0588ZM27.2353 34.0588H25.3529V35.9412H27.2353V34.0588ZM29.1176 32.1765H27.2353V34.0588H29.1176V32.1765ZM29.1176 34.0588H27.2353V35.9412H29.1176V34.0588ZM29.1176 30.2941H27.2353V32.1765H29.1176V30.2941ZM29.1176 28.4118H27.2353V30.2941H29.1176V28.4118ZM29.1176 26.5294H27.2353V28.4118H29.1176V26.5294ZM29.1176 24.6471H27.2353V26.5294H29.1176V24.6471ZM29.1176 22.7647H27.2353V24.6471H29.1176V22.7647ZM27.2353 24.6471H25.3529V26.5294H27.2353V24.6471ZM27.2353 26.5294H25.3529V28.4118H27.2353V26.5294ZM27.2353 28.4118H25.3529V30.2941H27.2353V28.4118ZM27.2353 30.2941H25.3529V32.1765H27.2353V30.2941ZM27.2353 32.1765H25.3529V34.0588H27.2353V32.1765ZM25.3529 32.1765H23.4706V34.0588H25.3529V32.1765ZM25.3529 30.2941H23.4706V32.1765H25.3529V30.2941ZM27.2353 22.7647H25.3529V24.6471H27.2353V22.7647ZM25.3529 13.3529H23.4706V15.2353H25.3529V13.3529ZM27.2353 13.3529H25.3529V15.2353H27.2353V13.3529ZM29.1176 13.3529H27.2353V15.2353H29.1176V13.3529ZM29.1176 15.2353H27.2353V17.1176H29.1176V15.2353ZM29.1176 17.1176H27.2353V19H29.1176V17.1176ZM29.1176 45.3529H27.2353V47.2353H29.1176V45.3529ZM29.1176 47.2353H27.2353V49.1176H29.1176V47.2353ZM29.1176 49.1176H27.2353V51H29.1176V49.1176ZM27.2353 49.1176H25.3529V51H27.2353V49.1176ZM25.3529 49.1176H23.4706V51H25.3529V49.1176ZM21.5882 32.1765H19.7059V34.0588H21.5882V32.1765ZM21.5882 30.2941H19.7059V32.1765H21.5882V30.2941ZM21.5882 28.4118H19.7059V30.2941H21.5882V28.4118ZM21.5882 34.0588H19.7059V35.9412H21.5882V34.0588ZM19.7059 34.0588H17.8235V35.9412H19.7059V34.0588ZM17.8235 34.0588H15.9412V35.9412H17.8235V34.0588ZM15.9412 34.0588H14.0588V35.9412H15.9412V34.0588ZM14.0588 34.0588H12.1765V35.9412H14.0588V34.0588ZM14.0588 32.1765H12.1765V34.0588H14.0588V32.1765ZM14.0588 30.2941H12.1765V32.1765H14.0588V30.2941ZM14.0588 28.4118H12.1765V30.2941H14.0588V28.4118ZM15.9412 28.4118H14.0588V30.2941H15.9412V28.4118ZM17.8235 28.4118H15.9412V30.2941H17.8235V28.4118ZM19.7059 28.4118H17.8235V30.2941H19.7059V28.4118ZM19.7059 30.2941H17.8235V32.1765H19.7059V30.2941ZM19.7059 32.1765H17.8235V34.0588H19.7059V32.1765ZM17.8235 32.1765H15.9412V34.0588H17.8235V32.1765ZM15.9412 32.1765H14.0588V34.0588H15.9412V32.1765ZM15.9412 30.2941H14.0588V32.1765H15.9412V30.2941ZM17.8235 30.2941H15.9412V32.1765H17.8235V30.2941ZM14.0588 26.5294H12.1765V28.4118H14.0588V26.5294ZM14.0588 35.9412H12.1765V37.8235H14.0588V35.9412Z" fill="white"/>
<path d="M55.4706 32.1765H57.3529V34.0588H55.4706V32.1765ZM55.4706 30.2941H57.3529V32.1765H55.4706V30.2941ZM55.4706 28.4118H57.3529V30.2941H55.4706V28.4118ZM55.4706 26.5294H57.3529V28.4118H55.4706V26.5294ZM55.4706 24.6471H57.3529V26.5294H55.4706V24.6471ZM55.4706 22.7647H57.3529V24.6471H55.4706V22.7647ZM55.4706 20.8824H57.3529V22.7647H55.4706V20.8824ZM55.4706 19H57.3529V20.8824H55.4706V19ZM53.5882 19H55.4706V20.8824H53.5882V19ZM53.5882 17.1176H55.4706V19H53.5882V17.1176ZM53.5882 15.2353H55.4706V17.1176H53.5882V15.2353ZM51.7059 15.2353H53.5882V17.1176H51.7059V15.2353ZM51.7059 17.1176H53.5882V19H51.7059V17.1176ZM51.7059 19H53.5882V20.8824H51.7059V19ZM51.7059 20.8824H53.5882V22.7647H51.7059V20.8824ZM51.7059 22.7647H53.5882V24.6471H51.7059V22.7647ZM51.7059 24.6471H53.5882V26.5294H51.7059V24.6471ZM51.7059 26.5294H53.5882V28.4118H51.7059V26.5294ZM51.7059 28.4118H53.5882V30.2941H51.7059V28.4118ZM51.7059 30.2941H53.5882V32.1765H51.7059V30.2941ZM51.7059 32.1765H53.5882V34.0588H51.7059V32.1765ZM51.7059 34.0588H53.5882V35.9412H51.7059V34.0588ZM51.7059 35.9412H53.5882V37.8235H51.7059V35.9412ZM53.5882 34.0588H55.4706V35.9412H53.5882V34.0588ZM53.5882 32.1765H55.4706V34.0588H53.5882V32.1765ZM53.5882 30.2941H55.4706V32.1765H53.5882V30.2941ZM53.5882 28.4118H55.4706V30.2941H53.5882V28.4118ZM53.5882 26.5294H55.4706V28.4118H53.5882V26.5294ZM53.5882 24.6471H55.4706V26.5294H53.5882V24.6471ZM53.5882 22.7647H55.4706V24.6471H53.5882V22.7647ZM53.5882 20.8824H55.4706V22.7647H53.5882V20.8824ZM49.8235 20.8824H51.7059V22.7647H49.8235V20.8824ZM47.9412 20.8824H49.8235V22.7647H47.9412V20.8824ZM49.8235 19H51.7059V20.8824H49.8235V19ZM47.9412 19H49.8235V20.8824H47.9412V19ZM46.0588 19H47.9412V20.8824H46.0588V19ZM44.1765 19H46.0588V20.8824H44.1765V19ZM42.2941 19H44.1765V20.8824H42.2941V19ZM40.4118 19H42.2941V20.8824H40.4118V19ZM38.5294 19H40.4118V20.8824H38.5294V19ZM38.5294 20.8824H40.4118V22.7647H38.5294V20.8824ZM38.5294 22.7647H40.4118V24.6471H38.5294V22.7647ZM38.5294 24.6471H40.4118V26.5294H38.5294V24.6471ZM38.5294 26.5294H40.4118V28.4118H38.5294V26.5294ZM38.5294 28.4118H40.4118V30.2941H38.5294V28.4118ZM38.5294 30.2941H40.4118V32.1765H38.5294V30.2941ZM38.5294 32.1765H40.4118V34.0588H38.5294V32.1765ZM40.4118 32.1765H42.2941V34.0588H40.4118V32.1765ZM40.4118 34.0588H42.2941V35.9412H40.4118V34.0588ZM42.2941 34.0588H44.1765V35.9412H42.2941V34.0588ZM44.1765 34.0588H46.0588V35.9412H44.1765V34.0588ZM46.0588 34.0588H47.9412V35.9412H46.0588V34.0588ZM47.9412 34.0588H49.8235V35.9412H47.9412V34.0588ZM47.9412 32.1765H49.8235V34.0588H47.9412V32.1765ZM46.0588 32.1765H47.9412V34.0588H46.0588V32.1765ZM44.1765 32.1765H46.0588V34.0588H44.1765V32.1765ZM42.2941 32.1765H44.1765V34.0588H42.2941V32.1765ZM49.8235 32.1765H51.7059V34.0588H49.8235V32.1765ZM49.8235 30.2941H51.7059V32.1765H49.8235V30.2941ZM47.9412 30.2941H49.8235V32.1765H47.9412V30.2941ZM49.8235 28.4118H51.7059V30.2941H49.8235V28.4118ZM49.8235 22.7647H51.7059V24.6471H49.8235V22.7647ZM49.8235 24.6471H51.7059V26.5294H49.8235V24.6471ZM49.8235 26.5294H51.7059V28.4118H49.8235V26.5294ZM49.8235 34.0588H51.7059V35.9412H49.8235V34.0588ZM49.8235 35.9412H51.7059V37.8235H49.8235V35.9412ZM49.8235 37.8235H51.7059V39.7059H49.8235V37.8235ZM47.9412 37.8235H49.8235V39.7059H47.9412V37.8235ZM46.0588 37.8235H47.9412V39.7059H46.0588V37.8235ZM44.1765 37.8235H46.0588V39.7059H44.1765V37.8235ZM42.2941 37.8235H44.1765V39.7059H42.2941V37.8235ZM42.2941 35.9412H44.1765V37.8235H42.2941V35.9412ZM40.4118 35.9412H42.2941V37.8235H40.4118V35.9412ZM40.4118 37.8235H42.2941V39.7059H40.4118V37.8235ZM44.1765 35.9412H46.0588V37.8235H44.1765V35.9412ZM46.0588 35.9412H47.9412V37.8235H46.0588V35.9412ZM47.9412 35.9412H49.8235V37.8235H47.9412V35.9412ZM49.8235 13.3529H51.7059V15.2353H49.8235V13.3529ZM49.8235 15.2353H51.7059V17.1176H49.8235V15.2353ZM49.8235 17.1176H51.7059V19H49.8235V17.1176ZM47.9412 17.1176H49.8235V19H47.9412V17.1176ZM47.9412 15.2353H49.8235V17.1176H47.9412V15.2353ZM47.9412 13.3529H49.8235V15.2353H47.9412V13.3529ZM46.0588 13.3529H47.9412V15.2353H46.0588V13.3529ZM44.1765 13.3529H46.0588V15.2353H44.1765V13.3529ZM42.2941 13.3529H44.1765V15.2353H42.2941V13.3529ZM40.4118 13.3529H42.2941V15.2353H40.4118V13.3529ZM38.5294 13.3529H40.4118V15.2353H38.5294V13.3529ZM36.6471 13.3529H38.5294V15.2353H36.6471V13.3529ZM34.7647 13.3529H36.6471V15.2353H34.7647V13.3529ZM32.8824 13.3529H34.7647V15.2353H32.8824V13.3529ZM32.8824 15.2353H34.7647V17.1176H32.8824V15.2353ZM32.8824 17.1176H34.7647V19H32.8824V17.1176ZM32.8824 19H34.7647V20.8824H32.8824V19ZM34.7647 19H36.6471V20.8824H34.7647V19ZM34.7647 17.1176H36.6471V19H34.7647V17.1176ZM36.6471 17.1176H38.5294V19H36.6471V17.1176ZM38.5294 17.1176H40.4118V19H38.5294V17.1176ZM40.4118 17.1176H42.2941V19H40.4118V17.1176ZM42.2941 17.1176H44.1765V19H42.2941V17.1176ZM44.1765 17.1176H46.0588V19H44.1765V17.1176ZM46.0588 17.1176H47.9412V19H46.0588V17.1176ZM46.0588 15.2353H47.9412V17.1176H46.0588V15.2353ZM44.1765 15.2353H46.0588V17.1176H44.1765V15.2353ZM42.2941 15.2353H44.1765V17.1176H42.2941V15.2353ZM40.4118 15.2353H42.2941V17.1176H40.4118V15.2353ZM38.5294 15.2353H40.4118V17.1176H38.5294V15.2353ZM36.6471 15.2353H38.5294V17.1176H36.6471V15.2353ZM34.7647 20.8824H36.6471V22.7647H34.7647V20.8824ZM34.7647 22.7647H36.6471V24.6471H34.7647V22.7647ZM34.7647 15.2353H36.6471V17.1176H34.7647V15.2353ZM36.6471 19H38.5294V20.8824H36.6471V19ZM36.6471 20.8824H38.5294V22.7647H36.6471V20.8824ZM36.6471 22.7647H38.5294V24.6471H36.6471V22.7647ZM36.6471 24.6471H38.5294V26.5294H36.6471V24.6471ZM36.6471 26.5294H38.5294V28.4118H36.6471V26.5294ZM36.6471 28.4118H38.5294V30.2941H36.6471V28.4118ZM36.6471 30.2941H38.5294V32.1765H36.6471V30.2941ZM36.6471 32.1765H38.5294V34.0588H36.6471V32.1765ZM34.7647 32.1765H36.6471V34.0588H34.7647V32.1765ZM34.7647 30.2941H36.6471V32.1765H34.7647V30.2941ZM34.7647 28.4118H36.6471V30.2941H34.7647V28.4118ZM34.7647 26.5294H36.6471V28.4118H34.7647V26.5294ZM32.8824 24.6471H34.7647V26.5294H32.8824V24.6471ZM32.8824 22.7647H34.7647V24.6471H32.8824V22.7647ZM32.8824 20.8824H34.7647V22.7647H32.8824V20.8824ZM32.8824 26.5294H34.7647V28.4118H32.8824V26.5294ZM32.8824 28.4118H34.7647V30.2941H32.8824V28.4118ZM34.7647 24.6471H36.6471V26.5294H34.7647V24.6471ZM32.8824 30.2941H34.7647V32.1765H32.8824V30.2941ZM32.8824 32.1765H34.7647V34.0588H32.8824V32.1765ZM32.8824 34.0588H34.7647V35.9412H32.8824V34.0588ZM32.8824 35.9412H34.7647V37.8235H32.8824V35.9412ZM34.7647 35.9412H36.6471V37.8235H34.7647V35.9412ZM36.6471 35.9412H38.5294V37.8235H36.6471V35.9412ZM38.5294 35.9412H40.4118V37.8235H38.5294V35.9412ZM38.5294 37.8235H40.4118V39.7059H38.5294V37.8235ZM36.6471 37.8235H38.5294V39.7059H36.6471V37.8235ZM34.7647 37.8235H36.6471V39.7059H34.7647V37.8235ZM32.8824 37.8235H34.7647V39.7059H32.8824V37.8235ZM34.7647 34.0588H36.6471V35.9412H34.7647V34.0588ZM36.6471 34.0588H38.5294V35.9412H36.6471V34.0588ZM38.5294 34.0588H40.4118V35.9412H38.5294V34.0588ZM32.8824 39.7059H34.7647V41.5882H32.8824V39.7059ZM32.8824 41.5882H34.7647V43.4706H32.8824V41.5882ZM32.8824 43.4706H34.7647V45.3529H32.8824V43.4706ZM32.8824 45.3529H34.7647V47.2353H32.8824V45.3529ZM32.8824 47.2353H34.7647V49.1176H32.8824V47.2353ZM32.8824 49.1176H34.7647V51H32.8824V49.1176ZM34.7647 49.1176H36.6471V51H34.7647V49.1176ZM36.6471 49.1176H38.5294V51H36.6471V49.1176ZM38.5294 49.1176H40.4118V51H38.5294V49.1176ZM38.5294 47.2353H40.4118V49.1176H38.5294V47.2353ZM38.5294 45.3529H40.4118V47.2353H38.5294V45.3529ZM38.5294 43.4706H40.4118V45.3529H38.5294V43.4706ZM38.5294 41.5882H40.4118V43.4706H38.5294V41.5882ZM38.5294 39.7059H40.4118V41.5882H38.5294V39.7059ZM36.6471 39.7059H38.5294V41.5882H36.6471V39.7059ZM34.7647 39.7059H36.6471V41.5882H34.7647V39.7059ZM34.7647 41.5882H36.6471V43.4706H34.7647V41.5882ZM34.7647 43.4706H36.6471V45.3529H34.7647V43.4706ZM34.7647 45.3529H36.6471V47.2353H34.7647V45.3529ZM34.7647 47.2353H36.6471V49.1176H34.7647V47.2353ZM36.6471 47.2353H38.5294V49.1176H36.6471V47.2353ZM36.6471 45.3529H38.5294V47.2353H36.6471V45.3529ZM36.6471 43.4706H38.5294V45.3529H36.6471V43.4706ZM36.6471 41.5882H38.5294V43.4706H36.6471V41.5882ZM55.4706 41.5882H57.3529V43.4706H55.4706V41.5882ZM55.4706 43.4706H57.3529V45.3529H55.4706V43.4706ZM55.4706 45.3529H57.3529V47.2353H55.4706V45.3529ZM55.4706 47.2353H57.3529V49.1176H55.4706V47.2353ZM55.4706 49.1176H57.3529V51H55.4706V49.1176ZM53.5882 49.1176H55.4706V51H53.5882V49.1176ZM51.7059 49.1176H53.5882V51H51.7059V49.1176ZM49.8235 49.1176H51.7059V51H49.8235V49.1176ZM49.8235 47.2353H51.7059V49.1176H49.8235V47.2353ZM49.8235 45.3529H51.7059V47.2353H49.8235V45.3529ZM49.8235 43.4706H51.7059V45.3529H49.8235V43.4706ZM51.7059 43.4706H53.5882V45.3529H51.7059V43.4706ZM53.5882 41.5882H55.4706V43.4706H53.5882V41.5882ZM53.5882 43.4706H55.4706V45.3529H53.5882V43.4706ZM53.5882 45.3529H55.4706V47.2353H53.5882V45.3529ZM51.7059 45.3529H53.5882V47.2353H51.7059V45.3529ZM51.7059 47.2353H53.5882V49.1176H51.7059V47.2353ZM53.5882 47.2353H55.4706V49.1176H53.5882V47.2353ZM51.7059 41.5882H53.5882V43.4706H51.7059V41.5882ZM49.8235 41.5882H51.7059V43.4706H49.8235V41.5882ZM49.8235 39.7059H51.7059V41.5882H49.8235V39.7059ZM51.7059 39.7059H53.5882V41.5882H51.7059V39.7059ZM55.4706 39.7059H57.3529V41.5882H55.4706V39.7059ZM53.5882 39.7059H55.4706V41.5882H53.5882V39.7059ZM53.5882 37.8235H55.4706V39.7059H53.5882V37.8235ZM51.7059 37.8235H53.5882V39.7059H51.7059V37.8235ZM46.0588 39.7059H47.9412V41.5882H46.0588V39.7059ZM47.9412 39.7059H49.8235V41.5882H47.9412V39.7059ZM47.9412 41.5882H49.8235V43.4706H47.9412V41.5882Z" fill="white"/>
</svg>
